<svg viewBox="0 0 151 98" xmlns="http://www.w3.org/2000/svg">
  <g transform="translate(0 -954.36)">
    <path d="m104.79 978.87c0 13.529-13.794 24.496-30.81 24.496s-30.81-10.967-30.81-24.496 13.794-24.496 30.81-24.496 30.81 10.967 30.81 24.496z" fill="#729fcf" />
    <path d="m103.42 979.71c0 13.43-13.234 24.318-29.56 24.318s-29.56-10.887-29.56-24.318 13.234-24.318 29.56-24.318 29.56 10.887 29.56 24.318z" fill="#eeeeec" />
    <path d="m106.06 1009.9c0 12.274-11.193 22.223-25.001 22.223s-25.001-9.9497-25.001-22.223 11.193-22.223 25.001-22.223 25.001 9.9497 25.001 22.223z" fill="#eeeeec" />
    <path d="m125.76 992.76c0 12.274-11.193 22.223-25.001 22.223s-25.001-9.9498-25.001-22.223 11.193-22.223 25.001-22.223 25.001 9.9497 25.001 22.223z" fill="#729fcf" />
    <path d="m70.197 999.83c0 12.274-11.193 22.223-25.001 22.223s-25.001-9.9497-25.001-22.223 11.193-22.223 25.001-22.223 25.001 9.9497 25.001 22.223z" fill="#729fcf" />
    <path d="m72.616 1001c0 12.274-11.473 22.223-25.626 22.223s-25.626-9.9497-25.626-22.223 11.473-22.223 25.626-22.223 25.626 9.9497 25.626 22.223z" fill="#eeeeec" />
    <path d="m40.397 1019.3c0 9.9026-8.9322 17.93-19.951 17.93s-19.951-8.0276-19.951-17.93 8.9321-17.93 19.951-17.93 19.951 8.0276 19.951 17.93z" fill="#729fcf" />
    <path d="m40.958 1019.7c0 9.3048-8.7722 16.848-19.593 16.848s-19.593-7.5431-19.593-16.848 8.7723-16.848 19.593-16.848 19.593 7.5431 19.593 16.848z" fill="#eeeeec" />
    <path d="m126.19 994.89c0 12.865-11.393 23.295-25.448 23.295s-25.448-10.429-25.448-23.295 11.393-23.295 25.448-23.295 25.448 10.429 25.448 23.295z" fill="#eeeeec" />
    <path d="m150.5 1000.3c0 12.274-11.193 22.223-25.001 22.223s-25.001-9.9497-25.001-22.223 11.193-22.223 25.001-22.223 25.001 9.9497 25.001 22.223z" fill="#729fcf" />
    <path d="m149.76 1000.2c0 11.583-11.273 20.973-25.18 20.973s-25.18-9.39-25.18-20.973 11.273-20.973 25.18-20.973 25.18 9.3901 25.18 20.973z" fill="#eeeeec" />
    <path d="m41.912 1033.7c0 6.5552-5.201 11.869-11.617 11.869s-11.617-5.3141-11.617-11.869 5.201-11.869 11.617-11.869 11.617 5.314 11.617 11.869z" fill="#729fcf" />
    <path d="m42.267 1032.9c0 6.4566-5.121 11.691-11.438 11.691s-11.438-5.2341-11.438-11.691 5.121-11.691 11.438-11.691 11.438 5.2342 11.438 11.691z" fill="#eeeeec" />
    <path d="m84.339 1030.1c0 12.274-11.193 22.223-25.001 22.223s-25.001-9.9497-25.001-22.223 11.193-22.223 25.001-22.223 25.001 9.9497 25.001 22.223z" fill="#729fcf" />
    <path d="m84.475 1029.6c0 12.014-10.93 21.754-24.413 21.754s-24.413-9.7395-24.413-21.754 10.93-21.754 24.413-21.754 24.413 9.7396 24.413 21.754z" fill="#eeeeec" />
    <path d="m139.39 1020c0 12.274-11.193 22.223-25.001 22.223s-25.001-9.9498-25.001-22.223 11.193-22.223 25.001-22.223 25.001 9.9498 25.001 22.223z" fill="#729fcf" />
    <path d="m138.06 1019.8c0 11.805-11.213 21.375-25.046 21.375s-25.046-9.57-25.046-21.375 11.213-21.375 25.046-21.375 25.046 9.57 25.046 21.375z" fill="#eeeeec" />
    <path d="m90.958 1048c-7.9716 1.3183-15.502-3.8048-16.82-11.443s4.076-14.898 12.048-16.217 15.502 3.8048 16.82 11.443-4.076 14.898-12.048 16.216z" fill="#729fcf" />
    <path d="m91.268 1046.6c-7.8378 1.3182-15.242-3.8049-16.538-11.443s4.0076-14.898 11.845-16.217 15.242 3.8048 16.538 11.443-4.0076 14.898-11.845 16.217z" fill="#eeeeec" />
  </g>
</svg>